<svg width="28" height="28" viewBox="0 0 28 28" fill="none" xmlns="http://www.w3.org/2000/svg">
<path d="M12.8672 2.96337C13.2137 2.77091 13.6036 2.66992 14 2.66992C14.3964 2.66992 14.7863 2.77091 15.1328 2.96337L23.9003 7.83304C24.0821 7.93412 24.2335 8.08195 24.339 8.26123C24.4444 8.44051 24.5 8.64472 24.5 8.8527V18.4602C24.4999 18.8763 24.3885 19.2848 24.1775 19.6434C23.9664 20.0019 23.6633 20.2975 23.2995 20.4995L15.1328 25.0379C14.7863 25.2303 14.3964 25.3313 14 25.3313C13.6036 25.3313 13.2137 25.2303 12.8672 25.0379L4.7005 20.4995C4.33691 20.2976 4.0339 20.0022 3.82283 19.6439C3.61176 19.2855 3.50031 18.8773 3.5 18.4614V8.8527C3.49999 8.64472 3.55558 8.44051 3.66102 8.26123C3.76645 8.08195 3.9179 7.93412 4.09967 7.83304L12.8683 2.96337H12.8672Z" stroke="black" stroke-width="1.5" stroke-linecap="round" stroke-linejoin="round"/>
<path d="M14 13.9998V25.0832M3.5 8.1665L14 13.9998L3.5 8.1665ZM14 13.9998L24.5 8.1665L14 13.9998Z" stroke="black" stroke-width="1.5" stroke-linejoin="round"/>
<path d="M8.75 11.0833L19.25 5.25" stroke="black" stroke-width="1.5" stroke-linecap="round" stroke-linejoin="round"/>
<path d="M7 14.3828L10.5 16.3335" stroke="black" stroke-width="1.5" stroke-linecap="round" stroke-linejoin="round"/>
</svg>
