<svg width="31" height="40" viewBox="0 0 41 40" fill="none" xmlns="http://www.w3.org/2000/svg">
<path d="M7.88345 9.83057H35.9322C36.5005 9.83059 37.0625 9.9497 37.582 10.1802C38.1015 10.4107 38.5669 10.7476 38.9483 11.169C39.3296 11.5904 39.6184 12.087 39.7961 12.6268C39.9738 13.1667 40.0363 13.7378 39.9798 14.3033L38.7594 26.5072C38.659 27.511 38.1893 28.4417 37.4413 29.1186C36.6933 29.7955 35.7206 30.1704 34.7118 30.1704H15.2872C14.3464 30.1708 13.4346 29.8451 12.7069 29.2488C11.9793 28.6524 11.4809 27.8223 11.2965 26.8998L7.88345 9.83057Z" stroke="#2C1810" stroke-width="3" stroke-linejoin="round"/>
<path d="M7.88346 9.83029L6.23593 3.23406C6.12574 2.79422 5.87175 2.40381 5.51428 2.12484C5.15682 1.84587 4.71639 1.69435 4.26296 1.69434H1.78149" stroke="#2C1810" stroke-width="3" stroke-linecap="round" stroke-linejoin="round"/>
<path d="M13.9854 38.3062H18.0534" stroke="#2C1810" stroke-width="3" stroke-linecap="round" stroke-linejoin="round"/>
<path d="M30.2573 38.3062H34.3253" stroke="#2C1810" stroke-width="3" stroke-linecap="round" stroke-linejoin="round"/>
</svg>
