<svg width="30" height="30" viewBox="0 0 30 30" fill="none" xmlns="http://www.w3.org/2000/svg">
<path d="M21.0468 5.625C21.7294 5.62443 22.4052 5.76012 23.0347 6.02414C23.6641 6.28815 24.2345 6.67517 24.7125 7.1625C25.6972 8.16223 26.2492 9.50921 26.2492 10.9125C26.2492 12.3158 25.6972 13.6628 24.7125 14.6625L15 24.4969L5.28747 14.6625C4.30271 13.6628 3.75071 12.3158 3.75071 10.9125C3.75071 9.50921 4.30271 8.16223 5.28747 7.1625C5.76568 6.67552 6.33614 6.2887 6.96551 6.02465C7.59489 5.7606 8.27057 5.6246 8.9531 5.6246C9.63562 5.6246 10.3113 5.7606 10.9407 6.02465C11.5701 6.2887 12.1405 6.67552 12.6187 7.1625L15 9.6L17.3718 7.18125C17.8483 6.68811 18.4194 6.29612 19.0508 6.02873C19.6822 5.76133 20.3611 5.62402 21.0468 5.625ZM21.0468 3.75C20.1146 3.74921 19.1916 3.93455 18.332 4.29516C17.4723 4.65577 16.6933 5.18438 16.0406 5.85L15 6.9L13.9593 5.85C13.3059 5.18558 12.5267 4.65789 11.6671 4.29768C10.8076 3.93748 9.88503 3.75197 8.9531 3.75197C8.02116 3.75197 7.09855 3.93748 6.23905 4.29768C5.37954 4.65789 4.60033 5.18558 3.94685 5.85C2.61736 7.2034 1.87244 9.02471 1.87244 10.9219C1.87244 12.819 2.61736 14.6404 3.94685 15.9938L15 27.1875L26.0531 15.9938C27.3826 14.6404 28.1275 12.819 28.1275 10.9219C28.1275 9.02471 27.3826 7.2034 26.0531 5.85C25.3998 5.18522 24.6206 4.65717 23.7611 4.29662C22.9016 3.93608 21.9789 3.75026 21.0468 3.75Z" fill="#2C1810"/>
</svg>
