<svg width="120" height="29" viewBox="0 0 138 29" fill="none" xmlns="http://www.w3.org/2000/svg">
<path fill-rule="evenodd" clip-rule="evenodd" d="M36.5408 0.23477C32.868 0.756325 29.7232 2.47244 28.0365 4.87529C26.7849 6.65766 26.5971 7.34108 26.5957 10.1207C26.5942 12.8524 26.8046 13.6551 28.0447 15.6438C28.8425 16.9236 30.2201 19.6232 31.1061 21.6427C32.1554 24.0361 33.351 25.8814 34.5379 26.9406C36.719 28.8867 39.4814 29.581 40.6099 28.4669C41.6161 27.473 40.7819 26.4569 38.6323 26.0584C36.7684 25.7134 35.3117 24.3143 34.2834 21.8836C33.8752 20.9195 33.5417 20.0401 33.5417 19.9289C33.5417 19.8182 34.4578 19.9379 35.5781 20.1949C38.7655 20.9266 44.9032 20.3942 47.5712 19.1542C50.254 17.9075 52.5833 15.323 52.9997 13.1317C53.2714 11.7019 53.4362 11.5812 55.1205 11.5812C56.7908 11.5812 56.995 11.726 57.5134 13.2784C58.3088 15.6585 60.7181 18.201 63.2107 19.29C65.7239 20.388 72.1419 20.8764 75.1094 20.1949C76.2297 19.9379 77.1458 19.8182 77.1458 19.9289C77.1458 20.0401 76.8123 20.9195 76.4041 21.8836C75.3758 24.3143 73.9191 25.7134 72.0552 26.0584C69.9056 26.4569 69.0714 27.473 70.0776 28.4669C71.209 29.5838 73.969 28.8862 76.1621 26.9292C77.4238 25.8033 78.5551 24.0081 79.7851 21.1803C80.7688 18.9189 81.994 16.5066 82.5082 15.8199C85.2883 12.1051 84.2658 5.23735 80.5426 2.61868C76.9034 0.0591824 69.2932 -0.735929 64.2543 0.91724C61.2466 1.90403 58.2058 4.6642 57.6102 6.94825C57.2422 8.361 57.0194 8.51813 55.1962 8.65017C53.6144 8.76518 53.1875 8.6355 53.1875 8.04011C53.1875 6.51142 51.2023 3.50466 49.4644 2.40239C46.2794 0.381013 41.3411 -0.447227 36.5408 0.23477ZM123.846 0.217258C120.412 0.716095 118.406 1.878 117.571 3.85253C115.777 8.09217 118.47 10.504 126.99 12.2883C132.718 13.4876 134.135 14.5875 131.651 15.9065C129.999 16.7835 123.284 16.5312 120.111 15.473L117.396 14.5676V16.7811C117.396 18.9213 117.456 19.0141 119.193 19.5706C120.181 19.8868 123.046 20.2706 125.558 20.423C133.473 20.9029 138 18.7438 138 14.49C138 11.0383 136.309 9.85136 128.536 7.84938C123.736 6.6127 121.887 5.56438 122.846 4.62303C123.557 3.92494 132.362 4.28936 134.552 5.10767L136.614 5.87769L136.469 3.66037C136.328 1.51736 136.258 1.4246 134.406 0.903515C131.668 0.133961 126.662 -0.191657 123.846 0.217258ZM0.319604 0.538143C0.14375 0.711363 0 5.18386 0 10.477V20.1002L8.50521 20.0974C13.1833 20.096 17.7809 19.8835 18.723 19.6251C21.2127 18.9421 22.5735 17.3046 22.6066 14.9533C22.6425 12.3744 21.5179 10.7582 19.4163 10.3687L17.7421 10.0582L19.2932 9.02927C20.6482 8.12909 20.8615 7.70172 20.9851 5.63348C21.251 1.17423 19.0406 0.29961 7.38731 0.250862C3.67569 0.235244 0.494979 0.364449 0.319604 0.538143ZM89.125 10.1614V20.1002H91.7604H94.3958V16.0229V11.9456L97.151 12.2627C103.203 12.9594 106.953 15.2652 107.652 18.7192C107.924 20.0577 108.02 20.1002 110.757 20.1002H113.581L113.272 18.7987C112.365 14.9699 109.5 11.8093 105.862 10.6237L103.902 9.98435L105.737 9.07328C108.307 7.79732 110.179 5.98608 111.216 3.77207C112.69 0.627593 112.507 0.221992 109.609 0.224358L107.094 0.225777L105.896 2.70529C104.92 4.72526 104.266 5.39921 102.366 6.34529C100.971 7.0396 98.9024 7.58671 97.2152 7.7074L94.3958 7.90854V4.0655V0.222464H91.7604H89.125V10.1614ZM43.3267 4.52932C44.3603 4.81281 45.8155 5.64721 46.5611 6.38316C47.6833 7.49158 47.9167 8.12483 47.9167 10.061C47.9167 14.1364 45.172 16.314 40.0353 16.314C34.0525 16.314 30.8646 13.1572 32.1621 8.51718C33.1583 4.9529 38.2456 3.13598 43.3267 4.52932ZM73.9934 4.52932C75.027 4.81281 76.4822 5.64721 77.2278 6.38316C78.35 7.49158 78.5833 8.12483 78.5833 10.061C78.5833 14.1364 75.8387 16.314 70.702 16.314C64.974 16.314 62.5011 14.0872 62.7157 9.12298C62.8753 5.43518 68.678 3.07161 73.9934 4.52932ZM15.8067 5.41766C16.2102 6.16261 16.1125 6.55212 15.3266 7.3283C14.4493 8.19488 13.8489 8.28811 9.92498 8.16743L5.51042 8.03159L5.36187 6.25679L5.21285 4.48199H10.2561C14.79 4.48199 15.3511 4.57664 15.8067 5.41766ZM16.675 12.6224C16.9913 12.9348 17.25 13.6854 17.25 14.2907C17.25 15.889 15.4665 16.3689 10.108 16.2118L5.51042 16.0774L5.36331 14.0659L5.21573 12.0545H10.6581C14.2519 12.0545 16.2955 12.2476 16.675 12.6224Z" fill="#2C1810"/>
</svg>
