<svg width="28" height="28" viewBox="0 0 28 28" fill="none" xmlns="http://www.w3.org/2000/svg">
<path d="M11.375 12.25V19.25C11.375 19.4821 11.4672 19.7046 11.6313 19.8687C11.7954 20.0328 12.0179 20.125 12.25 20.125C12.4821 20.125 12.7046 20.0328 12.8687 19.8687C13.0328 19.7046 13.125 19.4821 13.125 19.25V12.25C13.125 12.0179 13.0328 11.7954 12.8687 11.6313C12.7046 11.4672 12.4821 11.375 12.25 11.375C12.0179 11.375 11.7954 11.4672 11.6313 11.6313C11.4672 11.7954 11.375 12.0179 11.375 12.25Z" fill="#67717D"/>
<path d="M15.75 11.375C15.9821 11.375 16.2046 11.4672 16.3687 11.6313C16.5328 11.7954 16.625 12.0179 16.625 12.25V19.25C16.625 19.4821 16.5328 19.7046 16.3687 19.8687C16.2046 20.0328 15.9821 20.125 15.75 20.125C15.5179 20.125 15.2954 20.0328 15.1313 19.8687C14.9672 19.7046 14.875 19.4821 14.875 19.25V12.25C14.875 12.0179 14.9672 11.7954 15.1313 11.6313C15.2954 11.4672 15.5179 11.375 15.75 11.375Z" fill="#67717D"/>
<path d="M17.5 7H22.75C22.9821 7 23.2046 7.09219 23.3687 7.25628C23.5328 7.42038 23.625 7.64294 23.625 7.875C23.625 8.10706 23.5328 8.32962 23.3687 8.49372C23.2046 8.65781 22.9821 8.75 22.75 8.75H21.7822L20.4662 20.608C20.3474 21.6782 19.838 22.667 19.0356 23.3851C18.2333 24.1031 17.1943 24.5001 16.1175 24.5H11.8825C10.8057 24.5001 9.76672 24.1031 8.96436 23.3851C8.16199 22.667 7.65263 21.6782 7.53375 20.608L6.216 8.75H5.25C5.01794 8.75 4.79538 8.65781 4.63128 8.49372C4.46719 8.32962 4.375 8.10706 4.375 7.875C4.375 7.64294 4.46719 7.42038 4.63128 7.25628C4.79538 7.09219 5.01794 7 5.25 7H10.5C10.5 6.07174 10.8687 5.1815 11.5251 4.52513C12.1815 3.86875 13.0717 3.5 14 3.5C14.9283 3.5 15.8185 3.86875 16.4749 4.52513C17.1313 5.1815 17.5 6.07174 17.5 7ZM14 5.25C13.5359 5.25 13.0908 5.43437 12.7626 5.76256C12.4344 6.09075 12.25 6.53587 12.25 7H15.75C15.75 6.53587 15.5656 6.09075 15.2374 5.76256C14.9092 5.43437 14.4641 5.25 14 5.25ZM7.97825 8.75L9.27325 20.4155C9.34474 21.0575 9.65043 21.6506 10.1318 22.0813C10.6132 22.512 11.2365 22.7501 11.8825 22.75H16.1175C16.7632 22.7497 17.386 22.5114 17.8671 22.0807C18.3481 21.65 18.6535 21.0572 18.725 20.4155L20.0235 8.75H7.98H7.97825Z" fill="#67717D"/>
</svg>
